<svg xmlns="http://www.w3.org/2000/svg" xml:space="preserve" width="2048" height="2048" style="shape-rendering:geometricPrecision;text-rendering:geometricPrecision;image-rendering:optimizeQuality;fill-rule:evenodd;clip-rule:evenodd"><defs></defs><g fill="#fff" id="Layer_x0020_1"><g id="_460795184"><path id="_460796312" class="fil0" d="M1530.89 1231.95a242.642 242.642 0 0 1 30.778 10.394 247.092 247.092 0 0 1 29.204 14.428l41.515-41.514-.001-.002c9.372-9.372 24.568-9.372 33.94 0l.086.089 56.098 56.096.001-.002c9.372 9.372 9.373 24.57.001 33.941l-.133.13-41.384 41.384a247.218 247.218 0 0 1 14.422 29.196c4.1 9.891 7.581 20.17 10.396 30.786h58.74c13.255 0 24 10.746 24 24v79.459c0 13.254-10.745 24-24 24h-58.738a242.875 242.875 0 0 1-10.395 30.782 247.012 247.012 0 0 1-14.425 29.199l41.516 41.516.001-.001c9.372 9.372 9.372 24.568 0 33.94l-.088.086-56.1 56.098-16.968-16.97 16.97 16.972c-9.372 9.372-24.57 9.371-33.941-.001l-.13-.134-41.382-41.383a246.99 246.99 0 0 1-29.203 14.427 242.912 242.912 0 0 1-30.78 10.395v58.737c0 13.255-10.746 24-24 24h-79.459c-13.254 0-24-10.745-24-24v-58.737a242.812 242.812 0 0 1-30.777-10.395 247.183 247.183 0 0 1-29.204-14.428l-41.516 41.517h.003c-9.372 9.373-24.57 9.374-33.942.002l-.13-.133-56.052-56.054 16.969-16.97-16.972 16.97c-9.372-9.371-9.37-24.568.001-33.94l.134-.13 41.383-41.384a246.869 246.869 0 0 1-14.423-29.196 242.76 242.76 0 0 1-10.397-30.785h-58.74c-13.253 0-24-10.746-24-24v-79.459c0-13.254 10.747-24 24-24h58.738a242.747 242.747 0 0 1 10.394-30.777 247.202 247.202 0 0 1 14.43-29.204l-41.517-41.516-.002.002c-9.372-9.372-9.373-24.569 0-33.94l.133-.13 56.052-56.054c9.371-9.373 24.567-9.373 33.94 0l.086.088 41.426 41.426a246.833 246.833 0 0 1 29.199-14.425c9.892-4.1 20.17-7.584 30.784-10.396v-58.736c0-13.255 10.746-24 24-24h79.459c13.254 0 24 10.745 24 24v58.736zm12.403 54.645c-12.443-5.158-25.384-9.08-38.661-11.61-12.195-1.138-21.742-11.4-21.742-23.893v-53.878h-31.459v53.62c.137 11.512-8.047 21.774-19.752 23.879l-4.248-23.62 4.22 23.53c-13.966 2.511-27.57 6.56-40.628 11.974-12.858 5.33-25.085 12.012-36.507 19.87-9.404 7.12-22.857 6.393-31.433-2.183l.001-.001-38.119-38.119-22.246 22.246 37.777 37.774c8.38 8.027 9.916 21.177 3.086 31.008l-19.71-13.694 19.687 13.688c-8.09 11.646-14.956 24.138-20.408 37.288-5.157 12.442-9.078 25.384-11.608 38.66-1.138 12.195-11.4 21.742-23.893 21.742h-53.881v31.459h53.578c11.529-.159 21.815 8.03 23.923 19.75l-23.62 4.25 23.53-4.22c2.512 13.965 6.562 27.571 11.976 40.63a198.504 198.504 0 0 0 19.861 36.497c7.126 9.405 6.402 22.861-2.177 31.44v-.001l-38.12 38.12 22.245 22.247 37.818-37.819c8.031-8.34 21.154-9.861 30.966-3.042l-13.695 19.709 13.688-19.688c11.645 8.09 24.136 14.956 37.287 20.407 12.445 5.159 25.387 9.08 38.663 11.61 12.193 1.14 21.739 11.401 21.739 23.894v53.88h31.459v-53.623c-.137-11.51 8.047-21.773 19.753-23.878l4.247 23.62-4.22-23.53c13.964-2.51 27.567-6.56 40.624-11.973 12.854-5.327 25.075-12.006 36.492-19.858 9.407-7.134 22.871-6.412 31.453 2.17h-.002l38.119 38.121 22.248-22.247-37.818-37.818c-8.34-8.03-9.86-21.154-3.042-30.966l19.709 13.695-19.688-13.688c8.09-11.642 14.953-24.132 20.404-37.283 5.161-12.449 9.08-25.395 11.611-38.676 1.143-12.19 11.404-21.73 23.893-21.73h53.88v-31.459h-53.578c-11.529.158-21.816-8.03-23.924-19.75l23.62-4.25-23.53 4.22c-2.513-13.966-6.563-27.573-11.976-40.63a198.582 198.582 0 0 0-19.865-36.505c-7.12-9.404-6.393-22.857 2.183-31.433l.001.001 38.119-38.119-22.247-22.246-37.817 37.818c-8.03 8.34-21.154 9.86-30.966 3.041l13.695-19.709-13.688 19.688c-11.643-8.09-24.136-14.956-37.287-20.407z"/><path id="_460795040" class="fil0" d="M1467.16 1314.43c43.123 0 82.168 17.483 110.431 45.744 28.261 28.262 45.744 67.307 45.744 110.431 0 43.122-17.483 82.167-45.744 110.428-28.263 28.262-67.307 45.744-110.431 45.744-43.123 0-82.168-17.483-110.43-45.744-28.261-28.261-45.744-67.305-45.744-110.428 0-43.124 17.483-82.17 45.744-110.43 28.261-28.262 67.306-45.745 110.43-45.745zm76.493 79.682c-19.574-19.573-46.62-31.682-76.493-31.682-29.872 0-56.919 12.109-76.492 31.682-19.573 19.573-31.682 46.62-31.682 76.493 0 29.872 12.109 56.917 31.682 76.49 19.573 19.574 46.62 31.683 76.492 31.683 29.872 0 56.919-12.11 76.493-31.682 19.573-19.574 31.682-46.62 31.682-76.491 0-29.874-12.109-56.92-31.682-76.493z"/></g><path class="fil1" d="M619.659 1099.69h45.412a23.917 23.917 0 0 1 16.68 6.748c19.976 16.184 40.93 29.12 62.59 37.862 20.2 8.155 41.116 12.63 62.524 12.63 21.407 0 42.324-4.477 62.522-12.63 22.2-8.96 43.661-22.325 64.086-39.079l-.033-.086a23.9 23.9 0 0 1 15.221-5.444v-.001h45.411c97.904 0 186.995 39.562 252.075 103.478l-33.937 33.938c-56.402-55.24-133.482-89.416-218.137-89.416h-37.136c-22.138 17.275-45.463 31.249-69.737 41.048-25.895 10.454-52.767 16.192-80.335 16.192-27.568 0-54.44-5.738-80.337-16.192-24.274-9.8-47.596-23.774-69.733-41.048H619.66c-85.833 0-163.883 35.132-220.482 91.732-56.6 56.6-91.731 134.649-91.731 220.482v177.73h875.717c-8.131 24.563-4.42 33 10.58 48H283.445c-13.254 0-24-10.745-24-24v-201.73c0-99.084 40.518-189.144 105.794-254.42 65.276-65.276 155.336-105.794 254.42-105.794zM806.865 255.999c105.966 0 201.975 25.539 269.772 79.753 62.288 49.808 100.317 122.75 100.317 220.995 0 108.46-47.673 253.63-123.109 363.072-64.948 94.227-151.071 163.035-246.981 163.035s-182.034-68.808-246.982-163.035c-75.436-109.441-123.109-254.612-123.109-363.072 0-98.244 38.03-171.187 100.317-220.995 67.798-54.214 163.805-79.753 269.773-79.753zm239.959 117.066c-58.713-46.949-144.243-69.066-239.959-69.066-95.717 0-181.247 22.117-239.96 69.066-50.995 40.778-82.13 101.328-82.13 183.682 0 99.834 44.333 234.112 114.484 335.886 56.656 82.199 129.53 142.221 207.606 142.221 78.075 0 150.949-60.023 207.605-142.221 70.15-101.774 114.484-236.053 114.484-335.886 0-82.354-31.135-142.904-82.13-183.682z"/></g><path style="fill:none" d="M0 0h2048v2048H0z"/></svg>