<svg xmlns="http://www.w3.org/2000/svg" width="128" height="128" xml:space="preserve"><path fill="#fff" d="M70.104 102.991H56.042l-.828-9.944a29.923 29.923 0 0 1-7.207-3.177l-7.342 6.211-9.943-9.939 6.443-7.617a29.861 29.861 0 0 1-2.845-7.343l-9.589-.8.003-14.063 9.942-.829a29.914 29.914 0 0 1 3.176-7.205l-6.213-7.344L41.583 31l7.615 6.443a29.884 29.884 0 0 1 7.344-2.844l.799-9.589h14.063l.83 9.943a30.088 30.088 0 0 1 7.205 3.177l7.342-6.214 9.941 9.943-6.441 7.614a29.903 29.903 0 0 1 2.843 7.345l9.589.799V71.68l-9.944.827a29.963 29.963 0 0 1-3.176 7.205l6.214 7.346-9.942 9.943-7.617-6.442a29.931 29.931 0 0 1-7.342 2.844l-.802 9.588zm-10.383-3.998h6.706l.744-8.91 1.492-.284a26.046 26.046 0 0 0 8.758-3.381l1.231-.753 6.985 5.909 4.742-4.742-5.776-6.826.855-1.257a26.005 26.005 0 0 0 3.797-8.585l.339-1.403 9.12-.76v-6.704l-8.91-.744-.284-1.492a26.066 26.066 0 0 0-3.38-8.762l-.754-1.232 5.908-6.983-4.74-4.74-6.821 5.774-1.257-.855a26.1 26.1 0 0 0-8.587-3.799l-1.402-.339-.762-9.119H61.02l-.744 8.912-1.493.284a26.024 26.024 0 0 0-8.759 3.379l-1.232.754-6.985-5.909-4.741 4.739 5.773 6.824-.854 1.256a25.993 25.993 0 0 0-3.796 8.585l-.337 1.405-9.122.761-.001 6.706 8.912.741.283 1.494a26.003 26.003 0 0 0 3.381 8.757l.755 1.232-5.911 6.986 4.74 4.739 6.824-5.774 1.256.855a25.982 25.982 0 0 0 8.585 3.799l1.405.338.762 9.124z"/><path fill="#fff" d="M63.723 80.313c-8.995 0-16.312-7.317-16.312-16.313s7.317-16.313 16.312-16.313c8.994 0 16.312 7.317 16.312 16.313s-7.318 16.313-16.312 16.313zm0-28.627c-6.79 0-12.314 5.524-12.314 12.314s5.524 12.314 12.314 12.314S76.036 70.79 76.036 64s-5.523-12.314-12.313-12.314z"/><g><path fill="#fff" d="M57.065 127.374c-22.257-2.211-41.237-15.57-50.773-35.736L9.9 89.914c8.94 18.529 27.168 31.358 47.57 33.482l-.405 3.978zM127.35 67.236l-3.993-.198c.019-.365.033-.711.045-1.043h-10.554v-1.999c-.002-10.449-3.248-20.432-9.39-28.87l-1.178-1.617 8.553-6.214a64.915 64.915 0 0 0-1.038-1.307l3.089-2.538a63.534 63.534 0 0 1 3.056 4.018l.504.693-.019.013a63.89 63.89 0 0 1 10.987 33.822h.025v1.141c.004.286.006.571.006.857 0 .956-.029 1.985-.093 3.242zm-10.541-5.239h6.603a59.887 59.887 0 0 0-10.222-31.471l-5.352 3.888c5.527 8.215 8.603 17.677 8.971 27.583z"/><path fill="#fff" d="M63.719 127.721c-.27 0-.538-.009-.808-.019l-.904-.022c-.384-.008-.768-.016-1.148-.033l-1.146-.062a75.093 75.093 0 0 1-2.272-.179l-.356-.03c-21.799-2.27-41.248-15.956-50.786-35.725l-.03-.063a60.39 60.39 0 0 1-.781-1.726A63.332 63.332 0 0 1 .847 74.325l-.02-.103a65.508 65.508 0 0 1-.318-2.298l-.026-.196c-.04-.298-.08-.6-.112-.899a32.372 32.372 0 0 1-.088-.966l-.068-.813C.17 68.517.125 67.986.1 67.447a14.445 14.445 0 0 1-.022-.562l-.008-.196a65.937 65.937 0 0 1-.066-2.538L0 64.001c0-.152.004-.302.008-.454l.013-.773c.005-.46.011-.921.029-1.377.982-25.729 16.495-47.472 40.484-56.74l.205-.081a57.957 57.957 0 0 1 2.779-.997l2.41-.806 4.513 13.885-1.902.618c-20.301 6.594-33.942 25.37-33.942 46.719 0 27.089 22.038 49.128 49.125 49.128 10.449 0 20.432-3.247 28.867-9.389l1.617-1.177 8.58 11.807-1.615 1.176c-10.948 7.969-23.899 12.181-37.452 12.181zM9.899 89.914c8.94 18.529 27.167 31.358 47.57 33.482l.348.03c.714.069 1.429.12 2.143.168l1.089.059c.339.015.689.022 1.04.029l.394.009c.179.002.373.009.566.016.224.008.446.016.67.016 12.033 0 23.561-3.543 33.464-10.266l-3.881-5.341c-8.766 5.898-18.949 9.006-29.58 9.006-29.292 0-53.123-23.832-53.123-53.126 0-22.418 13.909-42.211 34.815-49.869l-2.037-6.269c-.261.094-.521.19-.781.288-.145.053-.264.1-.381.146l-.239.094C19.5 17.069 4.966 37.442 4.045 61.552c-.017.422-.021.847-.027 1.27l-.005.438c0 .12-.004.26-.008.401L3.998 64l.004.146c.002.799.031 1.597.063 2.392l.007.232c.004.153.009.307.018.457.025.519.066 1.001.107 1.485l.069.822c.023.287.047.575.078.86.029.271.065.539.101.805l.029.217c.091.728.184 1.443.296 2.147l.023.117a59.17 59.17 0 0 0 4.322 14.5c.271.615.509 1.155.766 1.695l.018.039z"/><path fill="#fff" d="m104.632 36.741-1.175-1.615c-9.231-12.683-24.086-20.254-39.735-20.254a49.11 49.11 0 0 0-15.183 2.403l-1.901.617-3.89-11.973 1.387-.451-.608-1.893.189-.066c.108-.039.216-.078.327-.114l.149-.048 1.737-.575.011.033C51.892 1.042 57.32.279 63.719.279c1.15 0 2.301.031 3.43.092 18.354.885 34.177 8.87 45.745 23.091a68.92 68.92 0 0 1 2.37 3.08l1.179 1.618-11.811 8.581zM63.719 10.875c16.261 0 31.724 7.556 41.765 20.306l5.349-3.886a67.769 67.769 0 0 0-1.036-1.305C98.96 12.669 84.145 5.193 66.944 4.364a59.488 59.488 0 0 0-3.216-.086c-5.962 0-11.02.705-16.553 2.333l2.042 6.281a53.027 53.027 0 0 1 14.502-2.017zM99.606 116.792l-8.634-11.881 1.616-1.176a49.142 49.142 0 0 0 11.802-12.191c5.531-8.143 8.455-17.669 8.455-27.548v-1.999L128 61.996l-.565 2.252a67.059 67.059 0 0 1-.086 2.981l-.012.314c-.043.83-.112 1.63-.182 2.429l-.019.21a8.47 8.47 0 0 1-.029.362c-1.603 17.076-9.557 31.858-23.004 42.74a60.66 60.66 0 0 1-2.842 2.185l-.02.017-1.635 1.306zm-3.071-11.029 3.883 5.346c.401-.31.787-.617 1.162-.925 12.599-10.196 20.048-24.032 21.548-40.02l.044-.538c.065-.752.132-1.507.172-2.271l.001-.128c.006-.134.01-.21.017-.284.016-.325.028-.641.039-.949h-6.594A52.779 52.779 0 0 1 107.7 93.79a53.153 53.153 0 0 1-11.165 11.973z"/></g></svg>